<?xml version="1.0" encoding="utf-8"?>
<!-- Generator: Adobe Illustrator 21.0.0, SVG Export Plug-In . SVG Version: 6.00 Build 0)  -->
<svg version="1.1" id="Слой_1" xmlns="http://www.w3.org/2000/svg" xmlns:xlink="http://www.w3.org/1999/xlink" x="0px" y="0px"
	 viewBox="0 0 180 49.3" style="enable-background:new 0 0 180 49.3;" xml:space="preserve">
<style type="text/css">
	.st0{enable-background:new    ;}
	.st1{fill:#FDE428;}
	.st2{fill:#FFFFFF;}
</style>
<g class="st0">
	<path class="st1" d="M17,9.6c-4.9,0-8.5,3.8-8.5,8.9c0,5.1,3.7,9,8.5,9c2.6,0,5.6-1.4,7.8-3.7l4.8,5.2c-3.4,3.6-8.4,5.8-13.1,5.8
		C7.1,34.7,0,27.8,0,18.5C0,9.4,7.3,2.6,16.9,2.6c4.7,0,9.6,2.1,12.7,5.4l-4.8,5.7C22.8,11.2,19.8,9.6,17,9.6z"/>
	<path class="st1" d="M57.3,22.2c0,7.5-5.3,12.5-13.3,12.5s-13.3-4.9-13.3-12.5c0-7.5,5.3-12.4,13.3-12.4S57.3,14.7,57.3,22.2z
		 M38.7,22.3c0,3.6,2.1,6.1,5.2,6.1c3.1,0,5.3-2.4,5.3-6.1c0-3.6-2.1-6-5.3-6C40.8,16.2,38.7,18.7,38.7,22.3z"/>
	<path class="st1" d="M85.1,10v24.3h-8v-4c-1.7,2.8-4.3,4.3-7.8,4.3c-5.3,0-8.7-3.6-8.7-9.3V10h8v13.1c0,2.7,1.5,4.4,3.9,4.4
		c2.8,0,4.5-2.3,4.5-5.5V10H85.1z"/>
	<path class="st1" d="M116.1,19v15.3h-8v-13c0-2.7-1.6-4.5-4.1-4.5c-2.7,0-4.5,1.9-4.8,4.6v12.9h-8V10h8v4c1.7-2.8,4.5-4.3,8.1-4.3
		C112.6,9.7,116.1,13.3,116.1,19z"/>
	<path class="st1" d="M130.1,15.2c-1.4,0-2.3,0.5-2.3,1.5c0,3.2,12.8,1.7,12.7,10.1c0,5-4.4,7.8-10.3,7.8c-4.1,0-8-1.2-11-3.5
		l2.5-5.2c2.8,1.9,5.9,3,8.6,3c1.5,0,2.6-0.5,2.6-1.5c0-3.3-12.6-1.7-12.6-10.1c0-5.1,4.3-7.9,10-7.9c3.5,0,7.1,1,10.1,2.8l-2.7,5.2
		C134.8,16.1,132.1,15.2,130.1,15.2z"/>
	<path class="st1" d="M167.8,24.3h-16.9c0.8,2.7,2.8,4.3,5.5,4.3c2.1,0,4.1-0.9,5.7-2.5l4.2,4.2c-2.5,2.8-6.1,4.3-10.6,4.3
		c-8,0-12.9-4.9-12.9-12.3c0-7.6,5.1-12.6,12.7-12.6C164.1,9.7,168.4,15.5,167.8,24.3z M160.1,20c0-2.8-1.8-4.7-4.5-4.7
		c-2.6,0-4.3,1.9-4.9,4.7H160.1z"/>
	<path class="st1" d="M180.2,1v33.4h-8V1H180.2z"/>
</g>
<g class="st0">
	<path class="st2" d="M11,45.1c0,2.5-1.9,4.3-4.5,4.3s-4.5-1.8-4.5-4.3c0-2.4,1.9-4.3,4.5-4.3S11,42.7,11,45.1z M4.2,45.1
		c0,1.4,1.1,2.4,2.3,2.4c1.3,0,2.3-1.1,2.3-2.4s-1-2.4-2.3-2.4S4.2,43.8,4.2,45.1z"/>
	<path class="st2" d="M17.1,40.9l1.6,6.1l1.6-6.1h2.1l1.6,6.1l1.6-6.1h2.3l-2.8,8.4h-2.3l-1.5-5.7l-1.6,5.7h-2.3l-2.8-8.4H17.1z"/>
	<path class="st2" d="M34.2,40.9L38,46v-5.1h2v8.4h-1.9l-3.8-5v5h-2.1v-8.4H34.2z"/>
	<path class="st2" d="M56.9,46.6v2.7h-2.2v-2.6l-3.1-5.8h2.2l2,3.6l1.9-3.6h2.2L56.9,46.6z"/>
	<path class="st2" d="M72.8,45.1c0,2.5-1.9,4.3-4.5,4.3s-4.5-1.8-4.5-4.3c0-2.4,1.9-4.3,4.5-4.3S72.8,42.7,72.8,45.1z M66,45.1
		c0,1.4,1.1,2.4,2.3,2.4c1.3,0,2.3-1.1,2.3-2.4s-1-2.4-2.3-2.4S66,43.8,66,45.1z"/>
	<path class="st2" d="M81.3,47.6c1,0,1.6-0.7,1.6-1.8v-4.9h2.2v4.9c0,2.2-1.5,3.6-3.9,3.6c-2.4,0-3.9-1.4-3.9-3.6v-4.9h2.2v4.9
		C79.5,46.9,80.3,47.6,81.3,47.6z"/>
	<path class="st2" d="M95.2,49.3L94,47h0h-1.6v2.3h-2.2v-8.4H94c2.2,0,3.5,1.1,3.5,3c0,1.3-0.5,2.2-1.5,2.7l1.8,2.7H95.2z
		 M92.4,45.3H94c0.9,0,1.4-0.5,1.4-1.3c0-0.8-0.5-1.3-1.4-1.3h-1.6V45.3z"/>
	<path class="st2" d="M113.7,42.7c-1.3,0-2.3,1-2.3,2.4c0,1.4,1,2.4,2.3,2.4c0.7,0,1.5-0.4,2.1-1l1.3,1.4c-0.9,0.9-2.2,1.6-3.5,1.6
		c-2.5,0-4.4-1.8-4.4-4.3c0-2.4,1.9-4.2,4.5-4.2c1.2,0,2.6,0.6,3.4,1.4l-1.3,1.5C115.2,43.2,114.4,42.7,113.7,42.7z"/>
	<path class="st2" d="M130,45.1c0,2.5-1.9,4.3-4.5,4.3s-4.5-1.8-4.5-4.3c0-2.4,1.9-4.3,4.5-4.3S130,42.7,130,45.1z M123.2,45.1
		c0,1.4,1.1,2.4,2.3,2.4c1.3,0,2.3-1.1,2.3-2.4s-1-2.4-2.3-2.4C124.2,42.7,123.2,43.8,123.2,45.1z"/>
	<path class="st2" d="M138.5,47.6c1,0,1.6-0.7,1.6-1.8v-4.9h2.2v4.9c0,2.2-1.5,3.6-3.9,3.6c-2.4,0-3.9-1.4-3.9-3.6v-4.9h2.2v4.9
		C136.7,46.9,137.5,47.6,138.5,47.6z"/>
	<path class="st2" d="M152.4,49.3l-1.2-2.3h0h-1.6v2.3h-2.2v-8.4h3.8c2.2,0,3.5,1.1,3.5,3c0,1.3-0.5,2.2-1.5,2.7l1.8,2.7H152.4z
		 M149.6,45.3h1.6c0.9,0,1.4-0.5,1.4-1.3c0-0.8-0.5-1.3-1.4-1.3h-1.6V45.3z"/>
	<path class="st2" d="M162.8,42.6c-0.5,0-0.9,0.2-0.9,0.6c0,1.4,4.4,0.6,4.4,3.6c0,1.7-1.5,2.6-3.4,2.6c-1.4,0-2.9-0.5-3.9-1.3
		l0.9-1.7c0.9,0.7,2.2,1.3,3,1.3c0.6,0,1.1-0.2,1.1-0.7c0-1.4-4.4-0.6-4.4-3.5c0-1.6,1.3-2.6,3.4-2.6c1.2,0,2.5,0.4,3.4,0.9
		l-0.8,1.7C164.6,43,163.4,42.6,162.8,42.6z"/>
	<path class="st2" d="M177.7,40.9v1.8h-4.4v1.6h4V46l-4,0v1.6h4.6v1.8H171v-8.4H177.7z"/>
</g>
</svg>
