<svg height="24.898" viewBox="0 0 301.695 24.898" width="301.695" xmlns="http://www.w3.org/2000/svg"><g fill="#e1682d"><path d="m958.425 1690.767c0 3.911-3.613 6.575-10.514 6.575a18.882 18.882 0 0 1 -11.982-3.723l2.907-3.423a13.949 13.949 0 0 0 9.183 2.962c3.26 0 4.89-.6 4.89-1.848 0-1.222-1.521-1.63-5.433-1.957-5.652-.489-10.786-1.739-10.786-5.977 0-4.075 4.4-6.3 10.433-6.3a18.309 18.309 0 0 1 10.433 2.825l-2.8 3.45a13.06 13.06 0 0 0 -7.634-2.119c-2.228 0-4.918.353-4.918 1.711 0 1.277 2.2 1.44 5.6 1.711 6.222.517 10.624 1.739 10.624 6.114" transform="translate(-935.929 -1674.759)"/><path d="m1023.279 1683.25h-7.906v14.589h-5.543v-14.589h-7.851v-4.428h21.3z" transform="translate(-978.365 -1675.882)"/><path d="m1157.332 1687.207c0-3.586-2.581-5.624-6.764-5.624-4.157 0-6.766 2.038-6.766 5.624s2.581 5.625 6.766 5.625 6.764-2.038 6.764-5.625m-19.154 0c0-6.439 4.864-10.133 12.39-10.133s12.416 3.695 12.416 10.133-4.891 10.135-12.416 10.135-12.39-3.7-12.39-10.135" transform="translate(-1065.871 -1674.759)"/><path d="m1240.251 1678.821v19.018h-4.862l-12.28-12.5v12.5h-5.352v-19.018h5.868l11.274 11.628v-11.628z" transform="translate(-1117 -1675.882)"/><path d="m1314.373 1693.131c-2.038 2.526-5.787 4.211-10.868 4.211-7.8 0-12.633-3.7-12.633-10.135s4.835-10.133 12.633-10.133a14.636 14.636 0 0 1 10.08 3.505l-4.048 2.989a8.03 8.03 0 0 0 -5.9-2.12c-4.618 0-7.146 2.037-7.146 5.759 0 3.75 2.608 5.787 7.227 5.787 2.337 0 4.184-.461 5.515-1.684v-1.71h-6.3v-3.884h11.438z" transform="translate(-1163.976 -1674.759)"/><path d="m1384.182 1688.33c0-3.368-2.662-5.107-6.738-5.107h-4.644v10.215h4.646c4.076 0 6.738-1.739 6.738-5.109m5.652 0c0 5.978-4.647 9.509-11.954 9.509h-10.623v-19.018h10.623c7.308 0 11.954 3.532 11.954 9.509" transform="translate(-1213.051 -1675.881)"/><path d="m1456.713 1687.207c0-3.586-2.58-5.624-6.765-5.624-4.156 0-6.765 2.038-6.765 5.624s2.581 5.625 6.765 5.625 6.765-2.038 6.765-5.625m-19.154 0c0-6.439 4.863-10.133 12.389-10.133s12.416 3.695 12.416 10.133-4.89 10.135-12.416 10.135-12.389-3.7-12.389-10.135" transform="translate(-1258.22 -1674.759)"/><path d="m1537.6 1693.131c-2.037 2.526-5.787 4.211-10.868 4.211-7.8 0-12.633-3.7-12.633-10.135s4.836-10.133 12.633-10.133a14.636 14.636 0 0 1 10.08 3.505l-4.048 2.989a8.03 8.03 0 0 0 -5.9-2.12c-4.618 0-7.145 2.037-7.145 5.759 0 3.75 2.608 5.787 7.226 5.787 2.338 0 4.184-.461 5.516-1.684v-1.71h-6.3v-3.884h11.439z" transform="translate(-1307.393 -1674.759)"/><path d="m1075.186 1687.815v-4.781h7.444c1.983 0 3.423.543 3.423 2.391s-1.44 2.39-3.423 2.39zm11.562 3.537c2.949-.881 4.929-2.883 4.929-6.037 0-4.347-3.777-6.493-8.64-6.493h-13.337v19.018h5.515v-6c4.548 0 9.913-.042 11.154 6.031h5.507a7.084 7.084 0 0 0 -5.126-6.516" transform="translate(-1021.874 -1675.882)"/><path d="m1648.635 1706.162a13.32 13.32 0 0 0 2.852-4.384 11.562 11.562 0 0 1 -7.661 2.235c-.03.015-5.926 4.255-5.926 4.255.865 1.32 3.235-.778 3.235-.778s2.448-2.98 7.5-1.328z" transform="translate(-1386.937 -1690.631)"/><path d="m1734.714 1673.255-4.145.491a.655.655 0 0 0 -.572.767c.086.46.305.968.854.9.661-.076 3.983-1.137 3.863-2.158z" transform="translate(-1446.101 -1672.305)"/><path d="m1747.8 1697.709s-.588 2.047 1.045 1.819a41.565 41.565 0 0 0 5.085-1.392c1.593-.188 2.985 1.589 4.107 1.457s1.139-.759 1.139-.759l-4.329-1.777z" transform="translate(-1457.478 -1687.598)"/><path d="m1691.106 1685.648a1.427 1.427 0 0 0 -.858-.174c-1.274.143-4.888.489-6.187-.021-3.4-1.333 1.947-8.626 1.947-8.626 1.47-.472 2.9-.122 5.227-.4a1.764 1.764 0 0 0 1.661-1.522c.016-.056-.522-.462-.49-.632.02-.1.614.036.623-.062.014-.153.007-.274-.044-.292a23.417 23.417 0 0 0 -3.8-.349l-.308-.414a.753.753 0 0 0 -.6-.3l-4.171-.037c-.056 0-.3 0-.5.005a.385.385 0 0 0 -.346.238l-.41.992c-.37.806-1.358 3.818-3.693 4.747-4.31 1.61-10.066-2.61-13.828-2.165-5.1.6-11.357 7.141-17.078 2.021 0 0 1.243 6.162 12.131 1.508-.144.951-1.26 7.31-7.18 10.339-.02.029-2.449 4.944-2.449 4.944l.515 1.475h3.469a.04.04 0 0 0 .035-.059 2.789 2.789 0 0 0 -2.247-1.129l-.245-.7s1.058-4.57 7.226-5.3a13.735 13.735 0 0 1 9.6-5.813c4.162-.493 5.808 1.652 9.427 1.946-.338 1.39-1.609 3.172-.465 3.327 2.462.333 8.928-2.9 12.5-2.486 1.26.147 2.141 2.347 3.661 2.16a1.263 1.263 0 0 0 1.055-.865zm-3-12.179a.373.373 0 1 1 -.373.373.372.372 0 0 1 .376-.373z" transform="translate(-1393.587 -1672.026)"/><path d="m1732.457 1671.089-2.028-.472a.726.726 0 0 0 -.888.627 2.005 2.005 0 0 0 -.011.249.069.069 0 0 0 .078.066l2.841-.336a.069.069 0 0 0 .008-.134z" transform="translate(-1445.808 -1670.598)"/></g></svg>