<svg height="193.898" viewBox="0 0 393.733 193.898" width="393.733" xmlns="http://www.w3.org/2000/svg"><path d="m1721.217 1735.918a103.782 103.782 0 0 0 22.131-34.14 89.517 89.517 0 0 1 -59.455 17.4c-.23.113-45.993 33.137-45.993 33.137 6.712 10.275 25.108-6.061 25.108-6.061s19-23.197 58.209-10.336z" transform="translate(-1637.9 -1614.967)"/><path d="m1766.678 1673.254-32.17 3.823a5.1 5.1 0 0 0 -4.435 5.969c.671 3.58 2.368 7.538 6.626 7.033 5.128-.61 30.917-8.873 29.979-16.825z" transform="translate(-1474.477 -1665.854)"/><path d="m1748.491 1702.134s-4.56 15.943 8.112 14.169 39.467-10.839 39.467-10.839c12.365-1.467 23.168 12.379 31.874 11.346s8.844-5.914 8.844-5.914l-33.6-13.84z" transform="translate(-1443.054 -1623.39)"/><path d="m1980.86 1772.714a11.049 11.049 0 0 0 -6.656-1.358c-9.887 1.115-37.933 3.805-48.021-.161-26.41-10.382 15.111-67.18 15.111-67.18 11.412-3.679 22.526-.952 40.564-3.079 9.683-1.14 11.5-7.147 12.89-11.855.128-.438-4.053-3.6-3.8-4.923.153-.815 4.766.278 4.837-.487.108-1.19.057-2.133-.341-2.27-6.435-2.175-29.525-2.718-29.525-2.718l-2.392-3.22a5.836 5.836 0 0 0 -4.628-2.352l-32.37-.29c-.432 0-2.349 0-3.887.042a2.987 2.987 0 0 0 -2.687 1.852l-3.178 7.723c-2.869 6.276-10.54 29.729-28.667 36.966-33.448 12.536-78.123-20.328-107.315-16.859-39.611 4.7-88.144 55.611-132.54 15.74 0 0 9.645 47.987 94.147 11.74-1.12 7.4-9.774 56.924-55.723 80.518-.154.222-19.009 38.5-19.009 38.5l3.995 11.489h26.924a.309.309 0 0 0 .269-.459c-1.15-2.035-6.3-8-17.443-8.792l-1.9-5.476s8.208-35.588 56.079-41.273c.135-.017 23.938-39.264 74.495-45.267 32.3-3.837 45.073 12.865 73.162 15.152-2.627 10.822-12.484 24.7-3.613 25.907 19.105 2.6 69.288-22.62 97.036-19.361 9.781 1.146 16.62 18.275 28.412 16.824 0 0 6.71-.756 8.187-6.735zm-23.266-94.845a2.9 2.9 0 1 1 -2.891 2.9 2.9 2.9 0 0 1 2.891-2.9z" transform="translate(-1619.532 -1666.635)"/><path d="m1752.246 1674.42-15.738-3.673a5.64 5.64 0 0 0 -6.889 4.886 15.519 15.519 0 0 0 -.087 1.942.537.537 0 0 0 .6.511l22.052-2.617a.534.534 0 0 0 .062-1.049z" transform="translate(-1475.287 -1670.598)"/></svg>